<!DOCTYPE svg PUBLIC "-//W3C//DTD SVG 1.1//EN" "http://www.w3.org/Graphics/SVG/1.1/DTD/svg11.dtd">

<!-- Uploaded to: SVG Repo, www.svgrepo.com, Transformed by: SVG Repo Mixer Tools -->
<svg fill="#000000" width="113px" height="113px" viewBox="0 0 24 24" xmlns="http://www.w3.org/2000/svg">

<g id="SVGRepo_bgCarrier" stroke-width="0"/>

<g id="SVGRepo_tracerCarrier" stroke-linecap="round" stroke-linejoin="round"/>

<g id="SVGRepo_iconCarrier">

<path d="M12,8.667,4,5.333,12,2l8,3.333ZM4,10.215l7.652,2.834a1.008,1.008,0,0,0,.7,0L20,10.215V8.081l-8,2.964L4,8.081Zm0,4.444,7.652,2.835a1.008,1.008,0,0,0,.7,0L20,14.659V12.526l-8,2.963L4,12.526ZM4,19.1l7.652,2.835a1.008,1.008,0,0,0,.7,0L20,19.1V16.97l-8,2.964L4,16.97Z"/>

</g>

</svg>
